<svg width="15" height="15" viewBox="0 0 15 15" fill="none" xmlns="http://www.w3.org/2000/svg">
<g clip-path="url(#clip0_51_97)">
<path d="M8.02259 0.0182621C5.85134 -0.128613 3.72572 0.665762 2.19259 2.20076C0.659466 3.73576 -0.131784 5.86139 0.018841 8.03389C0.293841 12.0051 3.80134 15.0001 8.17759 15.0001H11.8757C13.5988 15.0001 15.0007 13.5983 15.0007 11.8751V7.71264C15.0001 3.66389 11.9351 0.283887 8.02259 0.0182621ZM4.37509 8.43764C3.85759 8.43764 3.43759 8.01764 3.43759 7.50014C3.43759 6.98264 3.85759 6.56264 4.37509 6.56264C4.89259 6.56264 5.31259 6.98264 5.31259 7.50014C5.31259 8.01764 4.89259 8.43764 4.37509 8.43764ZM7.50009 8.43764C6.98259 8.43764 6.56259 8.01764 6.56259 7.50014C6.56259 6.98264 6.98259 6.56264 7.50009 6.56264C8.01759 6.56264 8.43759 6.98264 8.43759 7.50014C8.43759 8.01764 8.01759 8.43764 7.50009 8.43764ZM10.6251 8.43764C10.1076 8.43764 9.68759 8.01764 9.68759 7.50014C9.68759 6.98264 10.1076 6.56264 10.6251 6.56264C11.1426 6.56264 11.5626 6.98264 11.5626 7.50014C11.5626 8.01764 11.1426 8.43764 10.6251 8.43764Z" fill="#BDBDBD"/>
</g>
<defs>
<clipPath id="clip0_51_97">
<rect width="15" height="15" fill="white"/>
</clipPath>
</defs>
</svg>
