<svg width="15" height="15" viewBox="0 0 15 15" fill="none" xmlns="http://www.w3.org/2000/svg">
<g clip-path="url(#clip0_51_109)">
<path d="M10.9375 1.19824C10.2337 1.20919 9.54529 1.40565 8.94173 1.76779C8.33817 2.12992 7.84085 2.64491 7.5 3.26074C7.15915 2.64491 6.66184 2.12992 6.05828 1.76779C5.45472 1.40565 4.76629 1.20919 4.0625 1.19824C2.94059 1.24699 1.88357 1.73778 1.12237 2.56339C0.361167 3.389 -0.0423396 4.48232 4.44939e-06 5.60449C4.44939e-06 8.44637 2.99125 11.5501 5.5 13.6545C6.06014 14.1252 6.76835 14.3833 7.5 14.3833C8.23166 14.3833 8.93987 14.1252 9.5 13.6545C12.0088 11.5501 15 8.44637 15 5.60449C15.0423 4.48232 14.6388 3.389 13.8776 2.56339C13.1164 1.73778 12.0594 1.24699 10.9375 1.19824Z" fill="#BDBDBD"/>
</g>
<defs>
<clipPath id="clip0_51_109">
<rect width="15" height="15" fill="white"/>
</clipPath>
</defs>
</svg>
