<svg width="15" height="15" viewBox="0 0 15 15" fill="none" xmlns="http://www.w3.org/2000/svg">
<g clip-path="url(#clip0_51_182)">
<path d="M9.46249 11.6887C8.74374 11.6887 6.98374 11.4894 5.26999 9.75937C3.08874 7.55687 3.38999 5.2525 3.40374 5.15562C3.43124 4.9675 3.51686 4.7925 3.64999 4.65625L4.58936 3.69437C5.22186 3.04875 6.69686 2.25 8.51374 2.9275L8.52436 2.91687C8.58124 2.43062 8.74249 1.79688 9.17874 1.35188C9.63749 0.883125 10.2556 0.625 10.9194 0.625C11.7306 0.625 12.5481 1.0025 13.2194 1.68813C14.4706 2.96562 14.6081 4.67875 13.5475 5.76188C13.1119 6.20687 12.4906 6.375 12.01 6.43563L11.99 6.45625C12.6631 8.30438 11.8844 9.80813 11.2556 10.4488L10.3181 11.4094C10.1787 11.5525 9.99436 11.645 9.79624 11.6719C9.77561 11.6744 9.65749 11.6887 9.46249 11.6887Z" fill="black"/>
<path d="M4.38251 10.6388C4.17001 10.4244 3.97751 10.2082 3.80251 9.99316L0.997509 12.85C0.650634 13.2032 0.656259 13.7713 1.00938 14.1182C1.18376 14.2894 1.41063 14.375 1.63751 14.375C1.87001 14.375 2.10188 14.2857 2.27751 14.1063L5.06938 11.2632C4.84063 11.0763 4.61001 10.8688 4.38251 10.6388Z" fill="black"/>
</g>
<defs>
<clipPath id="clip0_51_182">
<rect width="15" height="15" fill="white"/>
</clipPath>
</defs>
</svg>
